<?xml version="1.0" encoding="utf-8"?>
<!-- Generator: Adobe Illustrator 18.1.1, SVG Export Plug-In . SVG Version: 6.00 Build 0)  -->
<svg version="1.1" xmlns="http://www.w3.org/2000/svg" xmlns:xlink="http://www.w3.org/1999/xlink" x="0px" y="0px"
	 viewBox="0 0 500 500" enable-background="new 0 0 500 500" xml:space="preserve">
<g id="Layer_1">
	<path fill="#57A0D7" d="M475.3,264.2v-194c0-22-18-40-40-40h-342c-22,0-40,18-40,40v329c0,22,18,40,40,40h342c22,0,40-18,40-40
		V297.9C475,286.7,475.1,275.4,475.3,264.2z"/>
	<path fill="#57A0D7" d="M462.9,297.9v-33.7C462.7,275.4,462.6,286.7,462.9,297.9z"/>
</g>
<g id="Layer_3">
</g>
<g id="Layer_2">
	<g>
		<g>
			<path fill="#E6E7E8" d="M188.8,288.5c2.9,4.2,6.2,8.2,9.9,11.9c15.9,15.9,37,24.6,59.4,24.6c22.4,0,43.6-8.7,59.4-24.6
				c29-29,32.4-74.2,10-106.9l25.3-25.2v18.4c0,7.8,6.3,14.1,14.1,14.1c7.8,0,14.1-6.3,14.1-14.1v-52.1c0-3.7-1.6-7.4-4.3-10
				c-0.1-0.1-0.2-0.1-0.2-0.2c-3.3-3.3-7.9-4.6-12.2-3.9l-49.2,0.6c-7.8,0.1-14,6.5-13.9,14.3c0.1,7.8,6,13.5,14.3,13.9l16.5-0.2
				l-24.1,24.1c-14.3-10.6-31.6-16.3-49.7-16.3c-22.4,0-43.6,8.7-59.4,24.6C169.6,210.6,166.3,255.8,188.8,288.5 M297.6,280.5
				c-21.1,21.1-57.9,21.1-79,0c-21.8-21.8-21.8-57.2,0-79c10.6-10.5,24.6-16.4,39.5-16.4c14.9,0,28.9,5.8,39.5,16.4
				C319.4,223.3,319.4,258.7,297.6,280.5z"/>
			<path fill="#E6E7E8" d="M77.3,337"/>
		</g>
	</g>
</g>
</svg>
