<?xml version="1.0" encoding="utf-8"?>
<!-- Generator: Adobe Illustrator 18.1.1, SVG Export Plug-In . SVG Version: 6.00 Build 0)  -->
<svg version="1.1" xmlns="http://www.w3.org/2000/svg" xmlns:xlink="http://www.w3.org/1999/xlink" x="0px" y="0px"
	 viewBox="0 0 500 500" enable-background="new 0 0 500 500" xml:space="preserve">
<g id="Layer_1">
	<path fill="#F06392" d="M475.3,264.2v-194c0-22-18-40-40-40h-342c-22,0-40,18-40,40v329c0,22,18,40,40,40h342c22,0,40-18,40-40
		V297.9C475,286.7,475.1,275.4,475.3,264.2z"/>
	<path fill="#57A0D7" d="M462.9,297.9v-33.7C462.7,275.4,462.6,286.7,462.9,297.9z"/>
</g>
<g id="Layer_3">
</g>
<g id="Layer_2">
	<g>
		<g>
			<path fill="#FFFFFF" d="M270.3,98.4c-49.9,0-90.5,38-90.5,84.6c0,41.4,32,75.9,73.8,83.2v25.6h-23.7c-8.4,0-15.2,6.4-15.2,14.2
				c0,7.8,6.8,14.2,15.2,14.2h23.7v15.9c0,7.8,6.8,14.2,15.2,14.2s15.2-6.4,15.2-14.2v-15.9h24.9c8.4,0,15.2-6.4,15.2-14.2
				c0-7.9-6.8-14.2-15.2-14.2h-24.9v-25.1c43.6-6.2,76.8-41.4,76.8-83.7C360.7,136.3,320.2,98.4,270.3,98.4z M270.3,239.3
				c-33.2,0-60.2-25.2-60.2-56.3s27-56.3,60.2-56.3c33.2,0,60.1,25.2,60.1,56.3S303.4,239.3,270.3,239.3z"/>
		</g>
	</g>
</g>
</svg>
